<svg xmlns="http://www.w3.org/2000/svg" viewBox="0 0 32 32" xml:space="preserve" fill="currentColor"><path d="M30 6H20v4a2 2 0 0 1-2 2h1c1.656 0 3-1.344 3-3 0-.38-.006-.71-.018-1H30v22H2V8h8.018c-.012.29-.018.62-.018 1 0 1.656 1.344 3 3 3h1a2 2 0 0 1-2-2V6H2a2 2 0 0 0-2 2v22a2 2 0 0 0 2 2h28a2 2 0 0 0 2-2V8a2 2 0 0 0-2-2zm-2.834 14H15a1 1 0 0 0 0 2h12.166a1 1 0 0 0 0-2zm0 4H15a1 1 0 0 0 0 2h12.166a1 1 0 0 0 0-2zM15 18h12.166a1 1 0 0 0 0-2H15a1 1 0 0 0 0 2zm-9.42-1.584a2.416 2.416 0 1 0 4.832 0 2.416 2.416 0 1 0-4.832 0zm2.468 3.382c-2.184 0-3.952 2.372-3.952 5.3s7.904 2.926 7.904 0-1.77-5.3-3.952-5.3zM12 10a2 2 0 0 0 2 2h4a2 2 0 0 0 2-2V2a2 2 0 0 0-2-2h-4a2 2 0 0 0-2 2v8zm6 0h-4V2h4v8z"/></svg>