<svg xmlns="http://www.w3.org/2000/svg" viewBox="0 0 32 32" xml:space="preserve" fill="currentColor"><path d="M6 32h20a2 2 0 0 0 2-2V2a2 2 0 0 0-2-2H6a2 2 0 0 0-2 2v28a2 2 0 0 0 2 2zm16-10a2 2 0 1 1 .001-4.001A2 2 0 0 1 22 22zm2 4a2 2 0 1 1-4.001-.001A2 2 0 0 1 24 26zm-2-10a2 2 0 1 1 .001-4.001A2 2 0 0 1 22 16zM8 8V4h16v4H8zm8 14a2 2 0 1 1 .001-4.001A2 2 0 0 1 16 22zm2 4a2 2 0 1 1-4.001-.001A2 2 0 0 1 18 26zm-2-10a2 2 0 1 1 .001-4.001A2 2 0 0 1 16 16zm-6-4a2 2 0 1 1-.001 4.001A2 2 0 0 1 10 12zm0 6a2 2 0 1 1-.001 4.001A2 2 0 0 1 10 18zm0 6a2 2 0 1 1-.001 4.001A2 2 0 0 1 10 24z"/></svg>