<svg fill="currentColor" viewBox="0 0 32 32" xmlns="http://www.w3.org/2000/svg"><path d="M16 0C7.164 0 0 7.164 0 16s7.164 16 16 16 16-7.164 16-16c0-8.838-7.164-16-16-16zm5.879 7.082h3.338c.198 0 .34.053.424.156.099.115.099.252 0 .406l-7.295 10.064 4.65 6.647c.1.14.1.27 0 .387-.083.115-.231.175-.447.175h-3.29c-.378 0-.683-.16-.915-.484l-4.676-6.724c.164-.232 2.606-3.613 7.322-10.143.23-.322.526-.485.889-.485zm-13.85 3.516h3.314c.363 0 .669.159.916.482l2.25 3.074c-.083.13-1.261 1.77-3.537 4.926-.247.321-.553.482-.916.482H6.77c-.198 0-.338-.056-.422-.173-.083-.115-.083-.244 0-.387l3.489-4.828c.015 0 .015-.006 0-.02l-2.227-2.996c-.115-.166-.115-.303 0-.406.083-.103.222-.154.42-.154z"/></svg>