<svg fill="currentColor" viewBox="0 0 32 32" xmlns="http://www.w3.org/2000/svg"><path d="M6 0a6 6 0 0 0-6 6v20a6 6 0 0 0 6 6h20a6 6 0 0 0 6-6V6a6 6 0 0 0-6-6H6zm17.047 5.313h4.002c.238 0 .406.06.506.183.119.138.119.303 0 .488L18.81 18.048l5.574 7.967c.119.169.119.323 0 .463-.1.138-.276.209-.535.209h-3.944c-.453 0-.82-.19-1.097-.578l-5.604-8.06c.197-.279 3.123-4.332 8.776-12.159.275-.384.631-.578 1.066-.578zM6.445 9.523h3.973c.435 0 .8.193 1.097.58l2.698 3.684c-.1.155-1.51 2.122-4.239 5.904-.297.385-.662.58-1.097.58H4.935c-.237 0-.404-.068-.504-.209-.1-.137-.1-.293 0-.464l4.18-5.787c.02 0 .02-.007 0-.024l-2.67-3.59c-.138-.2-.138-.364 0-.488.1-.124.267-.186.504-.186z" color="currentColor"/></svg>