<svg fill="currentColor" viewBox="0 0 32 32" xmlns="http://www.w3.org/2000/svg"><path d="M13.545 12.959c-.137.212-2.077 2.915-5.825 8.113-.408.53-.91.797-1.508.797H.795c-.326 0-.555-.095-.692-.287-.137-.19-.137-.402 0-.637l5.743-7.954c.026 0 .026-.01 0-.032L2.179 8.025c-.189-.274-.189-.5 0-.669.138-.17.366-.255.693-.255H8.33c.597 0 1.1.265 1.508.797zM31.878 1.567c.163.19.163.415 0 .67l-12.015 16.58 7.66 10.947c.163.232.163.444 0 .636-.138.19-.38.288-.735.288h-5.42c-.624 0-1.127-.265-1.509-.797L12.16 18.816c.271-.382 4.29-5.952 12.058-16.707.379-.529.869-.796 1.466-.796h5.498c.327 0 .559.084.696.254z"/></svg>